<?xml version="1.0" encoding="utf-8" standalone="no"?>
<!DOCTYPE svg PUBLIC "-//W3C//DTD SVG 1.1//EN"
  "http://www.w3.org/Graphics/SVG/1.1/DTD/svg11.dtd">
<svg xmlns:xlink="http://www.w3.org/1999/xlink" width="662.4pt" height="417.6pt" viewBox="0 0 662.4 417.6" xmlns="http://www.w3.org/2000/svg" version="1.1">
 <metadata>
  <rdf:RDF xmlns:dc="http://purl.org/dc/elements/1.1/" xmlns:cc="http://creativecommons.org/ns#" xmlns:rdf="http://www.w3.org/1999/02/22-rdf-syntax-ns#">
   <cc:Work>
    <dc:type rdf:resource="http://purl.org/dc/dcmitype/StillImage"/>
    <dc:format>image/svg+xml</dc:format>
    <dc:creator>
     <cc:Agent>
      <dc:title>rwkv-sglang bench/plots/make_benchmark_plots.py</dc:title>
     </cc:Agent>
    </dc:creator>
   </cc:Work>
  </rdf:RDF>
 </metadata>
 <defs>
  <style type="text/css">*{stroke-linejoin: round; stroke-linecap: butt}</style>
 </defs>
 <g id="figure_1">
  <g id="patch_1">
   <path d="M 0 417.6 
L 662.4 417.6 
L 662.4 0 
L 0 0 
z
" style="fill: #ffffff"/>
  </g>
  <g id="axes_1">
   <g id="patch_2">
    <path d="M 65.7 369.624 
L 572.112 369.624 
L 572.112 36.056 
L 65.7 36.056 
z
" style="fill: #fcfcfb"/>
   </g>
   <g id="matplotlib.axis_1">
    <g id="xtick_1">
     <g id="line2d_1">
      <path d="M 88.293127 369.624 
L 88.293127 36.056 
" clip-path="url(#pba594c582c)" style="fill: none; stroke: #e1e0d9; stroke-width: 0.8; stroke-linecap: square"/>
     </g>
     <g id="line2d_2">
      <defs>
       <path id="mef73e4fef8" d="M 0 0 
L 0 3.5 
" style="stroke: #898781; stroke-width: 0.8"/>
      </defs>
      <g>
       <use xlink:href="#mef73e4fef8" x="88.293127" y="369.624" style="fill: #898781; stroke: #898781; stroke-width: 0.8"/>
      </g>
     </g>
     <g id="text_1">
      <text style="font-size: 10.5px; font-family: 'DejaVu Sans', 'Arial', 'Helvetica', sans-serif; text-anchor: middle; fill: #898781" x="88.293127" y="384.601539" transform="rotate(-0 88.293127 384.601539)">1</text>
     </g>
    </g>
    <g id="xtick_2">
     <g id="line2d_3">
      <path d="M 314.224398 369.624 
L 314.224398 36.056 
" clip-path="url(#pba594c582c)" style="fill: none; stroke: #e1e0d9; stroke-width: 0.8; stroke-linecap: square"/>
     </g>
     <g id="line2d_4">
      <g>
       <use xlink:href="#mef73e4fef8" x="314.224398" y="369.624" style="fill: #898781; stroke: #898781; stroke-width: 0.8"/>
      </g>
     </g>
     <g id="text_2">
      <text style="font-size: 10.5px; font-family: 'DejaVu Sans', 'Arial', 'Helvetica', sans-serif; text-anchor: middle; fill: #898781" x="314.224398" y="384.601539" transform="rotate(-0 314.224398 384.601539)">8</text>
     </g>
    </g>
    <g id="xtick_3">
     <g id="line2d_5">
      <path d="M 464.845245 369.624 
L 464.845245 36.056 
" clip-path="url(#pba594c582c)" style="fill: none; stroke: #e1e0d9; stroke-width: 0.8; stroke-linecap: square"/>
     </g>
     <g id="line2d_6">
      <g>
       <use xlink:href="#mef73e4fef8" x="464.845245" y="369.624" style="fill: #898781; stroke: #898781; stroke-width: 0.8"/>
      </g>
     </g>
     <g id="text_3">
      <text style="font-size: 10.5px; font-family: 'DejaVu Sans', 'Arial', 'Helvetica', sans-serif; text-anchor: middle; fill: #898781" x="464.845245" y="384.601539" transform="rotate(-0 464.845245 384.601539)">32</text>
     </g>
    </g>
    <g id="xtick_4">
     <g id="line2d_7">
      <path d="M 540.155668 369.624 
L 540.155668 36.056 
" clip-path="url(#pba594c582c)" style="fill: none; stroke: #e1e0d9; stroke-width: 0.8; stroke-linecap: square"/>
     </g>
     <g id="line2d_8">
      <g>
       <use xlink:href="#mef73e4fef8" x="540.155668" y="369.624" style="fill: #898781; stroke: #898781; stroke-width: 0.8"/>
      </g>
     </g>
     <g id="text_4">
      <text style="font-size: 10.5px; font-family: 'DejaVu Sans', 'Arial', 'Helvetica', sans-serif; text-anchor: middle; fill: #898781" x="540.155668" y="384.601539" transform="rotate(-0 540.155668 384.601539)">64</text>
     </g>
    </g>
    <g id="text_5">
     <text style="font-size: 11.5px; font-family: 'DejaVu Sans', 'Arial', 'Helvetica', sans-serif; text-anchor: middle; fill: #52514e" x="318.906" y="399.861305" transform="rotate(-0 318.906 399.861305)">concurrency</text>
    </g>
   </g>
   <g id="matplotlib.axis_2">
    <g id="ytick_1">
     <g id="line2d_9">
      <path d="M 65.7 361.160053 
L 572.112 361.160053 
" clip-path="url(#pba594c582c)" style="fill: none; stroke: #e1e0d9; stroke-width: 0.8; stroke-linecap: square"/>
     </g>
     <g id="line2d_10">
      <defs>
       <path id="m2408b4e9f9" d="M 0 0 
L -3.5 0 
" style="stroke: #898781; stroke-width: 0.8"/>
      </defs>
      <g>
       <use xlink:href="#m2408b4e9f9" x="65.7" y="361.160053" style="fill: #898781; stroke: #898781; stroke-width: 0.8"/>
      </g>
     </g>
     <g id="text_6">
      <text style="font-size: 10.5px; font-family: 'DejaVu Sans', 'Arial', 'Helvetica', sans-serif; text-anchor: end; fill: #898781" x="58.7" y="365.148823" transform="rotate(-0 58.7 365.148823)">0</text>
     </g>
    </g>
    <g id="ytick_2">
     <g id="line2d_11">
      <path d="M 65.7 309.950306 
L 572.112 309.950306 
" clip-path="url(#pba594c582c)" style="fill: none; stroke: #e1e0d9; stroke-width: 0.8; stroke-linecap: square"/>
     </g>
     <g id="line2d_12">
      <g>
       <use xlink:href="#m2408b4e9f9" x="65.7" y="309.950306" style="fill: #898781; stroke: #898781; stroke-width: 0.8"/>
      </g>
     </g>
     <g id="text_7">
      <text style="font-size: 10.5px; font-family: 'DejaVu Sans', 'Arial', 'Helvetica', sans-serif; text-anchor: end; fill: #898781" x="58.7" y="313.939076" transform="rotate(-0 58.7 313.939076)">500</text>
     </g>
    </g>
    <g id="ytick_3">
     <g id="line2d_13">
      <path d="M 65.7 258.74056 
L 572.112 258.74056 
" clip-path="url(#pba594c582c)" style="fill: none; stroke: #e1e0d9; stroke-width: 0.8; stroke-linecap: square"/>
     </g>
     <g id="line2d_14">
      <g>
       <use xlink:href="#m2408b4e9f9" x="65.7" y="258.74056" style="fill: #898781; stroke: #898781; stroke-width: 0.8"/>
      </g>
     </g>
     <g id="text_8">
      <text style="font-size: 10.5px; font-family: 'DejaVu Sans', 'Arial', 'Helvetica', sans-serif; text-anchor: end; fill: #898781" x="58.7" y="262.729329" transform="rotate(-0 58.7 262.729329)">1,000</text>
     </g>
    </g>
    <g id="ytick_4">
     <g id="line2d_15">
      <path d="M 65.7 207.530813 
L 572.112 207.530813 
" clip-path="url(#pba594c582c)" style="fill: none; stroke: #e1e0d9; stroke-width: 0.8; stroke-linecap: square"/>
     </g>
     <g id="line2d_16">
      <g>
       <use xlink:href="#m2408b4e9f9" x="65.7" y="207.530813" style="fill: #898781; stroke: #898781; stroke-width: 0.8"/>
      </g>
     </g>
     <g id="text_9">
      <text style="font-size: 10.5px; font-family: 'DejaVu Sans', 'Arial', 'Helvetica', sans-serif; text-anchor: end; fill: #898781" x="58.7" y="211.519582" transform="rotate(-0 58.7 211.519582)">1,500</text>
     </g>
    </g>
    <g id="ytick_5">
     <g id="line2d_17">
      <path d="M 65.7 156.321066 
L 572.112 156.321066 
" clip-path="url(#pba594c582c)" style="fill: none; stroke: #e1e0d9; stroke-width: 0.8; stroke-linecap: square"/>
     </g>
     <g id="line2d_18">
      <g>
       <use xlink:href="#m2408b4e9f9" x="65.7" y="156.321066" style="fill: #898781; stroke: #898781; stroke-width: 0.8"/>
      </g>
     </g>
     <g id="text_10">
      <text style="font-size: 10.5px; font-family: 'DejaVu Sans', 'Arial', 'Helvetica', sans-serif; text-anchor: end; fill: #898781" x="58.7" y="160.309836" transform="rotate(-0 58.7 160.309836)">2,000</text>
     </g>
    </g>
    <g id="ytick_6">
     <g id="line2d_19">
      <path d="M 65.7 105.111319 
L 572.112 105.111319 
" clip-path="url(#pba594c582c)" style="fill: none; stroke: #e1e0d9; stroke-width: 0.8; stroke-linecap: square"/>
     </g>
     <g id="line2d_20">
      <g>
       <use xlink:href="#m2408b4e9f9" x="65.7" y="105.111319" style="fill: #898781; stroke: #898781; stroke-width: 0.8"/>
      </g>
     </g>
     <g id="text_11">
      <text style="font-size: 10.5px; font-family: 'DejaVu Sans', 'Arial', 'Helvetica', sans-serif; text-anchor: end; fill: #898781" x="58.7" y="109.100089" transform="rotate(-0 58.7 109.100089)">2,500</text>
     </g>
    </g>
    <g id="ytick_7">
     <g id="line2d_21">
      <path d="M 65.7 53.901573 
L 572.112 53.901573 
" clip-path="url(#pba594c582c)" style="fill: none; stroke: #e1e0d9; stroke-width: 0.8; stroke-linecap: square"/>
     </g>
     <g id="line2d_22">
      <g>
       <use xlink:href="#m2408b4e9f9" x="65.7" y="53.901573" style="fill: #898781; stroke: #898781; stroke-width: 0.8"/>
      </g>
     </g>
     <g id="text_12">
      <text style="font-size: 10.5px; font-family: 'DejaVu Sans', 'Arial', 'Helvetica', sans-serif; text-anchor: end; fill: #898781" x="58.7" y="57.890342" transform="rotate(-0 58.7 57.890342)">3,000</text>
     </g>
    </g>
    <g id="text_13">
     <text style="font-size: 11.5px; font-family: 'DejaVu Sans', 'Arial', 'Helvetica', sans-serif; text-anchor: middle; fill: #52514e" x="21.877773" y="202.84" transform="rotate(-90 21.877773 202.84)">output tok/s</text>
    </g>
   </g>
   <g id="patch_3">
    <path d="M 65.7 369.624 
L 65.7 36.056 
" style="fill: none; stroke: #c3c2b7; stroke-linejoin: miter; stroke-linecap: square"/>
   </g>
   <g id="patch_4">
    <path d="M 65.7 369.624 
L 572.112 369.624 
" style="fill: none; stroke: #c3c2b7; stroke-linejoin: miter; stroke-linecap: square"/>
   </g>
   <g id="line2d_23">
    <path d="M 88.293127 353.724398 
L 314.224398 311.763131 
L 464.845245 195.967652 
L 540.155668 96.651469 
" clip-path="url(#pba594c582c)" style="fill: none; stroke: #2a78d6; stroke-width: 2; stroke-linecap: square"/>
    <defs>
     <path id="mcdc94f44f1" d="M 0 3.5 
C 0.928211 3.5 1.81853 3.131218 2.474874 2.474874 
C 3.131218 1.81853 3.5 0.928211 3.5 0 
C 3.5 -0.928211 3.131218 -1.81853 2.474874 -2.474874 
C 1.81853 -3.131218 0.928211 -3.5 0 -3.5 
C -0.928211 -3.5 -1.81853 -3.131218 -2.474874 -2.474874 
C -3.131218 -1.81853 -3.5 -0.928211 -3.5 0 
C -3.5 0.928211 -3.131218 1.81853 -2.474874 2.474874 
C -1.81853 3.131218 -0.928211 3.5 0 3.5 
z
" style="stroke: #fcfcfb; stroke-width: 0.8"/>
    </defs>
    <g clip-path="url(#pba594c582c)">
     <use xlink:href="#mcdc94f44f1" x="88.293127" y="353.724398" style="fill: #2a78d6; stroke: #fcfcfb; stroke-width: 0.8"/>
     <use xlink:href="#mcdc94f44f1" x="314.224398" y="311.763131" style="fill: #2a78d6; stroke: #fcfcfb; stroke-width: 0.8"/>
     <use xlink:href="#mcdc94f44f1" x="464.845245" y="195.967652" style="fill: #2a78d6; stroke: #fcfcfb; stroke-width: 0.8"/>
     <use xlink:href="#mcdc94f44f1" x="540.155668" y="96.651469" style="fill: #2a78d6; stroke: #fcfcfb; stroke-width: 0.8"/>
    </g>
   </g>
   <g id="line2d_24">
    <path d="M 88.293127 350.37528 
L 314.224398 293.983107 
L 464.845245 155.440258 
L 540.155668 51.218182 
" clip-path="url(#pba594c582c)" style="fill: none; stroke: #008300; stroke-width: 2; stroke-linecap: square"/>
    <defs>
     <path id="mda3816dbe9" d="M 0 3.5 
C 0.928211 3.5 1.81853 3.131218 2.474874 2.474874 
C 3.131218 1.81853 3.5 0.928211 3.5 0 
C 3.5 -0.928211 3.131218 -1.81853 2.474874 -2.474874 
C 1.81853 -3.131218 0.928211 -3.5 0 -3.5 
C -0.928211 -3.5 -1.81853 -3.131218 -2.474874 -2.474874 
C -3.131218 -1.81853 -3.5 -0.928211 -3.5 0 
C -3.5 0.928211 -3.131218 1.81853 -2.474874 2.474874 
C -1.81853 3.131218 -0.928211 3.5 0 3.5 
z
" style="stroke: #fcfcfb; stroke-width: 0.8"/>
    </defs>
    <g clip-path="url(#pba594c582c)">
     <use xlink:href="#mda3816dbe9" x="88.293127" y="350.37528" style="fill: #008300; stroke: #fcfcfb; stroke-width: 0.8"/>
     <use xlink:href="#mda3816dbe9" x="314.224398" y="293.983107" style="fill: #008300; stroke: #fcfcfb; stroke-width: 0.8"/>
     <use xlink:href="#mda3816dbe9" x="464.845245" y="155.440258" style="fill: #008300; stroke: #fcfcfb; stroke-width: 0.8"/>
     <use xlink:href="#mda3816dbe9" x="540.155668" y="51.218182" style="fill: #008300; stroke: #fcfcfb; stroke-width: 0.8"/>
    </g>
   </g>
   <g id="line2d_25">
    <path d="M 88.293127 354.461818 
L 314.224398 323.500405 
L 464.845245 221.306235 
L 540.155668 126.742316 
" clip-path="url(#pba594c582c)" style="fill: none; stroke: #eb6834; stroke-width: 2; stroke-linecap: square"/>
    <defs>
     <path id="md267e97fef" d="M 0 3.5 
C 0.928211 3.5 1.81853 3.131218 2.474874 2.474874 
C 3.131218 1.81853 3.5 0.928211 3.5 0 
C 3.5 -0.928211 3.131218 -1.81853 2.474874 -2.474874 
C 1.81853 -3.131218 0.928211 -3.5 0 -3.5 
C -0.928211 -3.5 -1.81853 -3.131218 -2.474874 -2.474874 
C -3.131218 -1.81853 -3.5 -0.928211 -3.5 0 
C -3.5 0.928211 -3.131218 1.81853 -2.474874 2.474874 
C -1.81853 3.131218 -0.928211 3.5 0 3.5 
z
" style="stroke: #fcfcfb; stroke-width: 0.8"/>
    </defs>
    <g clip-path="url(#pba594c582c)">
     <use xlink:href="#md267e97fef" x="88.293127" y="354.461818" style="fill: #eb6834; stroke: #fcfcfb; stroke-width: 0.8"/>
     <use xlink:href="#md267e97fef" x="314.224398" y="323.500405" style="fill: #eb6834; stroke: #fcfcfb; stroke-width: 0.8"/>
     <use xlink:href="#md267e97fef" x="464.845245" y="221.306235" style="fill: #eb6834; stroke: #fcfcfb; stroke-width: 0.8"/>
     <use xlink:href="#md267e97fef" x="540.155668" y="126.742316" style="fill: #eb6834; stroke: #fcfcfb; stroke-width: 0.8"/>
    </g>
   </g>
   <g id="text_14">
    <text style="font-size: 13px; font-family: 'DejaVu Sans', 'Arial', 'Helvetica', sans-serif; text-anchor: start; fill: #0b0b0b" x="65.7" y="25.056" transform="rotate(-0 65.7 25.056)">Multi-GPU scaling — TP / PP (1.5B bf16, 2×L4, 64-in/256-out)</text>
   </g>
   <g id="legend_1">
    <g id="line2d_26">
     <path d="M 74.7 49.154437 
L 84.7 49.154437 
L 94.7 49.154437 
" style="fill: none; stroke: #2a78d6; stroke-width: 2; stroke-linecap: square"/>
     <g>
      <use xlink:href="#mcdc94f44f1" x="84.7" y="49.154437" style="fill: #2a78d6; stroke: #fcfcfb; stroke-width: 0.8"/>
     </g>
    </g>
    <g id="text_15">
     <text style="font-size: 10px; font-family: 'DejaVu Sans', 'Arial', 'Helvetica', sans-serif; text-anchor: start; fill: #0b0b0b" x="102.7" y="52.654437" transform="rotate(-0 102.7 52.654437)">tp=1 (1 GPU)</text>
    </g>
    <g id="line2d_27">
     <path d="M 74.7 64.155219 
L 84.7 64.155219 
L 94.7 64.155219 
" style="fill: none; stroke: #008300; stroke-width: 2; stroke-linecap: square"/>
     <g>
      <use xlink:href="#mda3816dbe9" x="84.7" y="64.155219" style="fill: #008300; stroke: #fcfcfb; stroke-width: 0.8"/>
     </g>
    </g>
    <g id="text_16">
     <text style="font-size: 10px; font-family: 'DejaVu Sans', 'Arial', 'Helvetica', sans-serif; text-anchor: start; fill: #0b0b0b" x="102.7" y="67.655219" transform="rotate(-0 102.7 67.655219)">tp=2 (24/24 exact)</text>
    </g>
    <g id="line2d_28">
     <path d="M 74.7 79.156 
L 84.7 79.156 
L 94.7 79.156 
" style="fill: none; stroke: #eb6834; stroke-width: 2; stroke-linecap: square"/>
     <g>
      <use xlink:href="#md267e97fef" x="84.7" y="79.156" style="fill: #eb6834; stroke: #fcfcfb; stroke-width: 0.8"/>
     </g>
    </g>
    <g id="text_17">
     <text style="font-size: 10px; font-family: 'DejaVu Sans', 'Arial', 'Helvetica', sans-serif; text-anchor: start; fill: #0b0b0b" x="102.7" y="82.656" transform="rotate(-0 102.7 82.656)">pp=2 (24/24 exact)</text>
    </g>
   </g>
   <g id="text_18">
    <text style="font-weight: 700; font-size: 8.8px; font-family: 'DejaVu Sans', 'Arial', 'Helvetica', sans-serif; text-anchor: start; fill: #2a78d6" x="584.227416" y="98.937407" transform="rotate(-0 584.227416 98.937407)">2,583</text>
   </g>
   <g id="text_19">
    <text style="font-weight: 700; font-size: 8.8px; font-family: 'DejaVu Sans', 'Arial', 'Helvetica', sans-serif; text-anchor: start; fill: #008300" x="584.227416" y="53.504119" transform="rotate(-0 584.227416 53.504119)">3,026 · 1.17×</text>
   </g>
   <g id="text_20">
    <text style="font-weight: 700; font-size: 8.8px; font-family: 'DejaVu Sans', 'Arial', 'Helvetica', sans-serif; text-anchor: start; fill: #eb6834" x="584.227416" y="129.028254" transform="rotate(-0 584.227416 129.028254)">2,289 · 0.89×</text>
   </g>
  </g>
  <g id="text_21">
   <text style="font-style: italic; font-size: 6.5px; font-family: 'DejaVu Sans', 'Arial', 'Helvetica', sans-serif; text-anchor: end; fill: #898781" x="659.088" y="412.697677" transform="rotate(-0 659.088 412.697677)">rwkv-sglang · bench/plots/make_benchmark_plots.py</text>
  </g>
 </g>
 <defs>
  <clipPath id="pba594c582c">
   <rect x="65.7" y="36.056" width="506.412" height="333.568"/>
  </clipPath>
 </defs>
</svg>
