<?xml version="1.0" encoding="utf-8" standalone="no"?>
<!DOCTYPE svg PUBLIC "-//W3C//DTD SVG 1.1//EN"
  "http://www.w3.org/Graphics/SVG/1.1/DTD/svg11.dtd">
<svg xmlns:xlink="http://www.w3.org/1999/xlink" width="907.2pt" height="432pt" viewBox="0 0 907.2 432" xmlns="http://www.w3.org/2000/svg" version="1.1">
 <metadata>
  <rdf:RDF xmlns:dc="http://purl.org/dc/elements/1.1/" xmlns:cc="http://creativecommons.org/ns#" xmlns:rdf="http://www.w3.org/1999/02/22-rdf-syntax-ns#">
   <cc:Work>
    <dc:type rdf:resource="http://purl.org/dc/dcmitype/StillImage"/>
    <dc:format>image/svg+xml</dc:format>
    <dc:creator>
     <cc:Agent>
      <dc:title>rwkv-sglang bench/plots/make_benchmark_plots.py</dc:title>
     </cc:Agent>
    </dc:creator>
   </cc:Work>
  </rdf:RDF>
 </metadata>
 <defs>
  <style type="text/css">*{stroke-linejoin: round; stroke-linecap: butt}</style>
 </defs>
 <g id="figure_1">
  <g id="patch_1">
   <path d="M 0 432 
L 907.2 432 
L 907.2 0 
L 0 0 
z
" style="fill: #ffffff"/>
  </g>
  <g id="axes_1">
   <g id="patch_2">
    <path d="M 65.7 253.184969 
L 388.924455 253.184969 
L 388.924455 98.38 
L 65.7 98.38 
z
" style="fill: #fcfcfb"/>
   </g>
   <g id="matplotlib.axis_1">
    <g id="xtick_1">
     <g id="line2d_1">
      <path d="M 80.268316 253.184969 
L 80.268316 98.38 
" clip-path="url(#p6fd5fb22be)" style="fill: none; stroke: #e1e0d9; stroke-width: 0.8; stroke-linecap: square"/>
     </g>
     <g id="line2d_2">
      <defs>
       <path id="mef73e4fef8" d="M 0 0 
L 0 3.5 
" style="stroke: #898781; stroke-width: 0.8"/>
      </defs>
      <g>
       <use xlink:href="#mef73e4fef8" x="80.268316" y="253.184969" style="fill: #898781; stroke: #898781; stroke-width: 0.8"/>
      </g>
     </g>
     <g id="text_1">
      <text style="font-size: 10.5px; font-family: 'DejaVu Sans', 'Arial', 'Helvetica', sans-serif; text-anchor: end; fill: #898781" x="84.257086" y="267.09372" transform="rotate(-30 84.257086 267.09372)">1</text>
     </g>
    </g>
    <g id="xtick_2">
     <g id="line2d_3">
      <path d="M 242.138495 253.184969 
L 242.138495 98.38 
" clip-path="url(#p6fd5fb22be)" style="fill: none; stroke: #e1e0d9; stroke-width: 0.8; stroke-linecap: square"/>
     </g>
     <g id="line2d_4">
      <g>
       <use xlink:href="#mef73e4fef8" x="242.138495" y="253.184969" style="fill: #898781; stroke: #898781; stroke-width: 0.8"/>
      </g>
     </g>
     <g id="text_2">
      <text style="font-size: 10.5px; font-family: 'DejaVu Sans', 'Arial', 'Helvetica', sans-serif; text-anchor: end; fill: #898781" x="246.127265" y="267.09372" transform="rotate(-30 246.127265 267.09372)">32</text>
     </g>
    </g>
    <g id="xtick_3">
     <g id="line2d_5">
      <path d="M 274.512531 253.184969 
L 274.512531 98.38 
" clip-path="url(#p6fd5fb22be)" style="fill: none; stroke: #e1e0d9; stroke-width: 0.8; stroke-linecap: square"/>
     </g>
     <g id="line2d_6">
      <g>
       <use xlink:href="#mef73e4fef8" x="274.512531" y="253.184969" style="fill: #898781; stroke: #898781; stroke-width: 0.8"/>
      </g>
     </g>
     <g id="text_3">
      <text style="font-size: 10.5px; font-family: 'DejaVu Sans', 'Arial', 'Helvetica', sans-serif; text-anchor: end; fill: #898781" x="278.501301" y="267.09372" transform="rotate(-30 278.501301 267.09372)">64</text>
     </g>
    </g>
    <g id="xtick_4">
     <g id="line2d_7">
      <path d="M 306.886567 253.184969 
L 306.886567 98.38 
" clip-path="url(#p6fd5fb22be)" style="fill: none; stroke: #e1e0d9; stroke-width: 0.8; stroke-linecap: square"/>
     </g>
     <g id="line2d_8">
      <g>
       <use xlink:href="#mef73e4fef8" x="306.886567" y="253.184969" style="fill: #898781; stroke: #898781; stroke-width: 0.8"/>
      </g>
     </g>
     <g id="text_4">
      <text style="font-size: 10.5px; font-family: 'DejaVu Sans', 'Arial', 'Helvetica', sans-serif; text-anchor: end; fill: #898781" x="310.875337" y="267.09372" transform="rotate(-30 310.875337 267.09372)">128</text>
     </g>
    </g>
    <g id="xtick_5">
     <g id="line2d_9">
      <path d="M 339.260603 253.184969 
L 339.260603 98.38 
" clip-path="url(#p6fd5fb22be)" style="fill: none; stroke: #e1e0d9; stroke-width: 0.8; stroke-linecap: square"/>
     </g>
     <g id="line2d_10">
      <g>
       <use xlink:href="#mef73e4fef8" x="339.260603" y="253.184969" style="fill: #898781; stroke: #898781; stroke-width: 0.8"/>
      </g>
     </g>
     <g id="text_5">
      <text style="font-size: 10.5px; font-family: 'DejaVu Sans', 'Arial', 'Helvetica', sans-serif; text-anchor: end; fill: #898781" x="343.249373" y="267.09372" transform="rotate(-30 343.249373 267.09372)">256</text>
     </g>
    </g>
    <g id="xtick_6">
     <g id="line2d_11">
      <path d="M 358.1982 253.184969 
L 358.1982 98.38 
" clip-path="url(#p6fd5fb22be)" style="fill: none; stroke: #e1e0d9; stroke-width: 0.8; stroke-linecap: square"/>
     </g>
     <g id="line2d_12">
      <g>
       <use xlink:href="#mef73e4fef8" x="358.1982" y="253.184969" style="fill: #898781; stroke: #898781; stroke-width: 0.8"/>
      </g>
     </g>
     <g id="text_6">
      <text style="font-size: 10.5px; font-family: 'DejaVu Sans', 'Arial', 'Helvetica', sans-serif; text-anchor: end; fill: #898781" x="362.18697" y="267.09372" transform="rotate(-30 362.18697 267.09372)">384</text>
     </g>
    </g>
    <g id="xtick_7">
     <g id="line2d_13">
      <path d="M 371.634639 253.184969 
L 371.634639 98.38 
" clip-path="url(#p6fd5fb22be)" style="fill: none; stroke: #e1e0d9; stroke-width: 0.8; stroke-linecap: square"/>
     </g>
     <g id="line2d_14">
      <g>
       <use xlink:href="#mef73e4fef8" x="371.634639" y="253.184969" style="fill: #898781; stroke: #898781; stroke-width: 0.8"/>
      </g>
     </g>
     <g id="text_7">
      <text style="font-size: 10.5px; font-family: 'DejaVu Sans', 'Arial', 'Helvetica', sans-serif; text-anchor: end; fill: #898781" x="375.623408" y="267.09372" transform="rotate(-30 375.623408 267.09372)">512</text>
     </g>
    </g>
    <g id="text_8">
     <text style="font-size: 11.5px; font-family: 'DejaVu Sans', 'Arial', 'Helvetica', sans-serif; text-anchor: middle; fill: #52514e" x="227.312227" y="292.036478" transform="rotate(-0 227.312227 292.036478)">concurrency</text>
    </g>
   </g>
   <g id="matplotlib.axis_2">
    <g id="ytick_1">
     <g id="line2d_15">
      <path d="M 65.7 250.494415 
L 388.924455 250.494415 
" clip-path="url(#p6fd5fb22be)" style="fill: none; stroke: #e1e0d9; stroke-width: 0.8; stroke-linecap: square"/>
     </g>
     <g id="line2d_16">
      <defs>
       <path id="m2408b4e9f9" d="M 0 0 
L -3.5 0 
" style="stroke: #898781; stroke-width: 0.8"/>
      </defs>
      <g>
       <use xlink:href="#m2408b4e9f9" x="65.7" y="250.494415" style="fill: #898781; stroke: #898781; stroke-width: 0.8"/>
      </g>
     </g>
     <g id="text_9">
      <text style="font-size: 10.5px; font-family: 'DejaVu Sans', 'Arial', 'Helvetica', sans-serif; text-anchor: end; fill: #898781" x="58.7" y="254.483185" transform="rotate(-0 58.7 254.483185)">0</text>
     </g>
    </g>
    <g id="ytick_2">
     <g id="line2d_17">
      <path d="M 65.7 211.002949 
L 388.924455 211.002949 
" clip-path="url(#p6fd5fb22be)" style="fill: none; stroke: #e1e0d9; stroke-width: 0.8; stroke-linecap: square"/>
     </g>
     <g id="line2d_18">
      <g>
       <use xlink:href="#m2408b4e9f9" x="65.7" y="211.002949" style="fill: #898781; stroke: #898781; stroke-width: 0.8"/>
      </g>
     </g>
     <g id="text_10">
      <text style="font-size: 10.5px; font-family: 'DejaVu Sans', 'Arial', 'Helvetica', sans-serif; text-anchor: end; fill: #898781" x="58.7" y="214.991718" transform="rotate(-0 58.7 214.991718)">2,000</text>
     </g>
    </g>
    <g id="ytick_3">
     <g id="line2d_19">
      <path d="M 65.7 171.511482 
L 388.924455 171.511482 
" clip-path="url(#p6fd5fb22be)" style="fill: none; stroke: #e1e0d9; stroke-width: 0.8; stroke-linecap: square"/>
     </g>
     <g id="line2d_20">
      <g>
       <use xlink:href="#m2408b4e9f9" x="65.7" y="171.511482" style="fill: #898781; stroke: #898781; stroke-width: 0.8"/>
      </g>
     </g>
     <g id="text_11">
      <text style="font-size: 10.5px; font-family: 'DejaVu Sans', 'Arial', 'Helvetica', sans-serif; text-anchor: end; fill: #898781" x="58.7" y="175.500252" transform="rotate(-0 58.7 175.500252)">4,000</text>
     </g>
    </g>
    <g id="ytick_4">
     <g id="line2d_21">
      <path d="M 65.7 132.020016 
L 388.924455 132.020016 
" clip-path="url(#p6fd5fb22be)" style="fill: none; stroke: #e1e0d9; stroke-width: 0.8; stroke-linecap: square"/>
     </g>
     <g id="line2d_22">
      <g>
       <use xlink:href="#m2408b4e9f9" x="65.7" y="132.020016" style="fill: #898781; stroke: #898781; stroke-width: 0.8"/>
      </g>
     </g>
     <g id="text_12">
      <text style="font-size: 10.5px; font-family: 'DejaVu Sans', 'Arial', 'Helvetica', sans-serif; text-anchor: end; fill: #898781" x="58.7" y="136.008785" transform="rotate(-0 58.7 136.008785)">6,000</text>
     </g>
    </g>
    <g id="text_13">
     <text style="font-size: 11.5px; font-family: 'DejaVu Sans', 'Arial', 'Helvetica', sans-serif; text-anchor: middle; fill: #52514e" x="21.877773" y="175.782484" transform="rotate(-90 21.877773 175.782484)">output tok/s</text>
    </g>
   </g>
   <g id="patch_3">
    <path d="M 65.7 253.184969 
L 65.7 98.38 
" style="fill: none; stroke: #c3c2b7; stroke-linejoin: miter; stroke-linecap: square"/>
   </g>
   <g id="patch_4">
    <path d="M 65.7 253.184969 
L 388.924455 253.184969 
" style="fill: none; stroke: #c3c2b7; stroke-linejoin: miter; stroke-linecap: square"/>
   </g>
   <g id="line2d_23">
    <path d="M 80.268316 246.148379 
L 242.138495 181.0309 
L 306.886567 110.743988 
L 339.260603 106.145207 
L 358.1982 105.416589 
L 371.634639 112.388808 
" clip-path="url(#p6fd5fb22be)" style="fill: none; stroke: #2a78d6; stroke-width: 2; stroke-linecap: square"/>
    <defs>
     <path id="mcdc94f44f1" d="M 0 3.5 
C 0.928211 3.5 1.81853 3.131218 2.474874 2.474874 
C 3.131218 1.81853 3.5 0.928211 3.5 0 
C 3.5 -0.928211 3.131218 -1.81853 2.474874 -2.474874 
C 1.81853 -3.131218 0.928211 -3.5 0 -3.5 
C -0.928211 -3.5 -1.81853 -3.131218 -2.474874 -2.474874 
C -3.131218 -1.81853 -3.5 -0.928211 -3.5 0 
C -3.5 0.928211 -3.131218 1.81853 -2.474874 2.474874 
C -1.81853 3.131218 -0.928211 3.5 0 3.5 
z
" style="stroke: #fcfcfb; stroke-width: 0.8"/>
    </defs>
    <g clip-path="url(#p6fd5fb22be)">
     <use xlink:href="#mcdc94f44f1" x="80.268316" y="246.148379" style="fill: #2a78d6; stroke: #fcfcfb; stroke-width: 0.8"/>
     <use xlink:href="#mcdc94f44f1" x="242.138495" y="181.0309" style="fill: #2a78d6; stroke: #fcfcfb; stroke-width: 0.8"/>
     <use xlink:href="#mcdc94f44f1" x="306.886567" y="110.743988" style="fill: #2a78d6; stroke: #fcfcfb; stroke-width: 0.8"/>
     <use xlink:href="#mcdc94f44f1" x="339.260603" y="106.145207" style="fill: #2a78d6; stroke: #fcfcfb; stroke-width: 0.8"/>
     <use xlink:href="#mcdc94f44f1" x="358.1982" y="105.416589" style="fill: #2a78d6; stroke: #fcfcfb; stroke-width: 0.8"/>
     <use xlink:href="#mcdc94f44f1" x="371.634639" y="112.388808" style="fill: #2a78d6; stroke: #fcfcfb; stroke-width: 0.8"/>
    </g>
   </g>
   <g id="line2d_24">
    <path d="M 80.268316 244.610187 
L 242.138495 180.391139 
L 306.886567 155.493743 
L 339.260603 132.616337 
L 358.1982 127.707548 
L 371.634639 129.672248 
" clip-path="url(#p6fd5fb22be)" style="fill: none; stroke: #4a3aa7; stroke-width: 2; stroke-linecap: square"/>
    <defs>
     <path id="m387810ee27" d="M 0 3.5 
C 0.928211 3.5 1.81853 3.131218 2.474874 2.474874 
C 3.131218 1.81853 3.5 0.928211 3.5 0 
C 3.5 -0.928211 3.131218 -1.81853 2.474874 -2.474874 
C 1.81853 -3.131218 0.928211 -3.5 0 -3.5 
C -0.928211 -3.5 -1.81853 -3.131218 -2.474874 -2.474874 
C -3.131218 -1.81853 -3.5 -0.928211 -3.5 0 
C -3.5 0.928211 -3.131218 1.81853 -2.474874 2.474874 
C -1.81853 3.131218 -0.928211 3.5 0 3.5 
z
" style="stroke: #fcfcfb; stroke-width: 0.8"/>
    </defs>
    <g clip-path="url(#p6fd5fb22be)">
     <use xlink:href="#m387810ee27" x="80.268316" y="244.610187" style="fill: #4a3aa7; stroke: #fcfcfb; stroke-width: 0.8"/>
     <use xlink:href="#m387810ee27" x="242.138495" y="180.391139" style="fill: #4a3aa7; stroke: #fcfcfb; stroke-width: 0.8"/>
     <use xlink:href="#m387810ee27" x="306.886567" y="155.493743" style="fill: #4a3aa7; stroke: #fcfcfb; stroke-width: 0.8"/>
     <use xlink:href="#m387810ee27" x="339.260603" y="132.616337" style="fill: #4a3aa7; stroke: #fcfcfb; stroke-width: 0.8"/>
     <use xlink:href="#m387810ee27" x="358.1982" y="127.707548" style="fill: #4a3aa7; stroke: #fcfcfb; stroke-width: 0.8"/>
     <use xlink:href="#m387810ee27" x="371.634639" y="129.672248" style="fill: #4a3aa7; stroke: #fcfcfb; stroke-width: 0.8"/>
    </g>
   </g>
   <g id="line2d_25">
    <path d="M 80.268316 244.704966 
L 242.138495 180.77618 
L 306.886567 155.983438 
L 339.260603 134.768622 
L 358.1982 128.384826 
L 371.634639 128.663241 
" clip-path="url(#p6fd5fb22be)" style="fill: none; stroke: #eda100; stroke-width: 2; stroke-linecap: square"/>
    <defs>
     <path id="ma0b6d7d510" d="M 0 3.5 
C 0.928211 3.5 1.81853 3.131218 2.474874 2.474874 
C 3.131218 1.81853 3.5 0.928211 3.5 0 
C 3.5 -0.928211 3.131218 -1.81853 2.474874 -2.474874 
C 1.81853 -3.131218 0.928211 -3.5 0 -3.5 
C -0.928211 -3.5 -1.81853 -3.131218 -2.474874 -2.474874 
C -3.131218 -1.81853 -3.5 -0.928211 -3.5 0 
C -3.5 0.928211 -3.131218 1.81853 -2.474874 2.474874 
C -1.81853 3.131218 -0.928211 3.5 0 3.5 
z
" style="stroke: #fcfcfb; stroke-width: 0.8"/>
    </defs>
    <g clip-path="url(#p6fd5fb22be)">
     <use xlink:href="#ma0b6d7d510" x="80.268316" y="244.704966" style="fill: #eda100; stroke: #fcfcfb; stroke-width: 0.8"/>
     <use xlink:href="#ma0b6d7d510" x="242.138495" y="180.77618" style="fill: #eda100; stroke: #fcfcfb; stroke-width: 0.8"/>
     <use xlink:href="#ma0b6d7d510" x="306.886567" y="155.983438" style="fill: #eda100; stroke: #fcfcfb; stroke-width: 0.8"/>
     <use xlink:href="#ma0b6d7d510" x="339.260603" y="134.768622" style="fill: #eda100; stroke: #fcfcfb; stroke-width: 0.8"/>
     <use xlink:href="#ma0b6d7d510" x="358.1982" y="128.384826" style="fill: #eda100; stroke: #fcfcfb; stroke-width: 0.8"/>
     <use xlink:href="#ma0b6d7d510" x="371.634639" y="128.663241" style="fill: #eda100; stroke: #fcfcfb; stroke-width: 0.8"/>
    </g>
   </g>
   <g id="text_14">
    <text style="font-size: 13px; font-family: 'DejaVu Sans', 'Arial', 'Helvetica', sans-serif; text-anchor: start; fill: #0b0b0b" x="65.7" y="89.38" transform="rotate(-0 65.7 89.38)">1.5B</text>
   </g>
   <g id="text_15">
    <text style="font-weight: 700; font-size: 8.8px; font-family: 'DejaVu Sans', 'Arial', 'Helvetica', sans-serif; text-anchor: start; fill: #2a78d6" x="397.742495" y="110.901047" transform="rotate(-0 397.742495 110.901047)">fp16 6,994</text>
   </g>
   <g id="text_16">
    <text style="font-weight: 700; font-size: 8.8px; font-family: 'DejaVu Sans', 'Arial', 'Helvetica', sans-serif; text-anchor: start; fill: #4a3aa7" x="397.742495" y="140.820703" transform="rotate(-0 397.742495 140.820703)">GPTQ 6,119</text>
   </g>
   <g id="text_17">
    <text style="font-weight: 700; font-size: 8.8px; font-family: 'DejaVu Sans', 'Arial', 'Helvetica', sans-serif; text-anchor: start; fill: #eda100" x="397.742495" y="125.860703" transform="rotate(-0 397.742495 125.860703)">RTN 6,170</text>
   </g>
   <g id="PathCollection_1">
    <defs>
     <path id="m424a97c046" d="M 0 3.535534 
C 0.937635 3.535534 1.836992 3.163008 2.5 2.5 
C 3.163008 1.836992 3.535534 0.937635 3.535534 0 
C 3.535534 -0.937635 3.163008 -1.836992 2.5 -2.5 
C 1.836992 -3.163008 0.937635 -3.535534 0 -3.535534 
C -0.937635 -3.535534 -1.836992 -3.163008 -2.5 -2.5 
C -3.163008 -1.836992 -3.535534 -0.937635 -3.535534 0 
C -3.535534 0.937635 -3.163008 1.836992 -2.5 2.5 
C -1.836992 3.163008 -0.937635 3.535534 0 3.535534 
z
" style="stroke: #fcfcfb; stroke-width: 1.2"/>
    </defs>
    <g clip-path="url(#p6fd5fb22be)">
     <use xlink:href="#m424a97c046" x="358.1982" y="105.416589" style="fill: #2a78d6; stroke: #fcfcfb; stroke-width: 1.2"/>
    </g>
   </g>
   <g id="text_18">
    <text style="font-weight: 700; font-size: 8.4px; font-family: 'DejaVu Sans', 'Arial', 'Helvetica', sans-serif; text-anchor: middle; fill: #2a78d6" x="358.1982" y="94.398621" transform="rotate(-0 358.1982 94.398621)">7,347</text>
   </g>
   <g id="PathCollection_2">
    <defs>
     <path id="m12552bb075" d="M 0 3.535534 
C 0.937635 3.535534 1.836992 3.163008 2.5 2.5 
C 3.163008 1.836992 3.535534 0.937635 3.535534 0 
C 3.535534 -0.937635 3.163008 -1.836992 2.5 -2.5 
C 1.836992 -3.163008 0.937635 -3.535534 0 -3.535534 
C -0.937635 -3.535534 -1.836992 -3.163008 -2.5 -2.5 
C -3.163008 -1.836992 -3.535534 -0.937635 -3.535534 0 
C -3.535534 0.937635 -3.163008 1.836992 -2.5 2.5 
C -1.836992 3.163008 -0.937635 3.535534 0 3.535534 
z
" style="stroke: #fcfcfb; stroke-width: 1.2"/>
    </defs>
    <g clip-path="url(#p6fd5fb22be)">
     <use xlink:href="#m12552bb075" x="358.1982" y="127.707548" style="fill: #4a3aa7; stroke: #fcfcfb; stroke-width: 1.2"/>
    </g>
   </g>
   <g id="text_19">
    <text style="font-weight: 700; font-size: 8.4px; font-family: 'DejaVu Sans', 'Arial', 'Helvetica', sans-serif; text-anchor: middle; fill: #4a3aa7" x="358.1982" y="116.689579" transform="rotate(-0 358.1982 116.689579)">6,218</text>
   </g>
   <g id="PathCollection_3">
    <defs>
     <path id="m658eb68142" d="M 0 3.535534 
C 0.937635 3.535534 1.836992 3.163008 2.5 2.5 
C 3.163008 1.836992 3.535534 0.937635 3.535534 0 
C 3.535534 -0.937635 3.163008 -1.836992 2.5 -2.5 
C 1.836992 -3.163008 0.937635 -3.535534 0 -3.535534 
C -0.937635 -3.535534 -1.836992 -3.163008 -2.5 -2.5 
C -3.163008 -1.836992 -3.535534 -0.937635 -3.535534 0 
C -3.535534 0.937635 -3.163008 1.836992 -2.5 2.5 
C -1.836992 3.163008 -0.937635 3.535534 0 3.535534 
z
" style="stroke: #fcfcfb; stroke-width: 1.2"/>
    </defs>
    <g clip-path="url(#p6fd5fb22be)">
     <use xlink:href="#m658eb68142" x="358.1982" y="128.384826" style="fill: #eda100; stroke: #fcfcfb; stroke-width: 1.2"/>
    </g>
   </g>
   <g id="text_20">
    <text style="font-weight: 700; font-size: 8.4px; font-family: 'DejaVu Sans', 'Arial', 'Helvetica', sans-serif; text-anchor: middle; fill: #eda100" x="358.1982" y="117.366858" transform="rotate(-0 358.1982 117.366858)">6,184</text>
   </g>
  </g>
  <g id="axes_2">
   <g id="patch_5">
    <path d="M 454.624455 253.184969 
L 777.848909 253.184969 
L 777.848909 98.38 
L 454.624455 98.38 
z
" style="fill: #fcfcfb"/>
   </g>
   <g id="matplotlib.axis_3">
    <g id="xtick_8">
     <g id="line2d_26">
      <path d="M 469.058714 253.184969 
L 469.058714 98.38 
" clip-path="url(#pc3aa6c6976)" style="fill: none; stroke: #e1e0d9; stroke-width: 0.8; stroke-linecap: square"/>
     </g>
     <g id="line2d_27">
      <g>
       <use xlink:href="#mef73e4fef8" x="469.058714" y="253.184969" style="fill: #898781; stroke: #898781; stroke-width: 0.8"/>
      </g>
     </g>
     <g id="text_21">
      <text style="font-size: 10.5px; font-family: 'DejaVu Sans', 'Arial', 'Helvetica', sans-serif; text-anchor: end; fill: #898781" x="473.047483" y="267.09372" transform="rotate(-30 473.047483 267.09372)">1</text>
     </g>
    </g>
    <g id="xtick_9">
     <g id="line2d_28">
      <path d="M 675.26242 253.184969 
L 675.26242 98.38 
" clip-path="url(#pc3aa6c6976)" style="fill: none; stroke: #e1e0d9; stroke-width: 0.8; stroke-linecap: square"/>
     </g>
     <g id="line2d_29">
      <g>
       <use xlink:href="#mef73e4fef8" x="675.26242" y="253.184969" style="fill: #898781; stroke: #898781; stroke-width: 0.8"/>
      </g>
     </g>
     <g id="text_22">
      <text style="font-size: 10.5px; font-family: 'DejaVu Sans', 'Arial', 'Helvetica', sans-serif; text-anchor: end; fill: #898781" x="679.25119" y="267.09372" transform="rotate(-30 679.25119 267.09372)">32</text>
     </g>
    </g>
    <g id="xtick_10">
     <g id="line2d_30">
      <path d="M 716.503161 253.184969 
L 716.503161 98.38 
" clip-path="url(#pc3aa6c6976)" style="fill: none; stroke: #e1e0d9; stroke-width: 0.8; stroke-linecap: square"/>
     </g>
     <g id="line2d_31">
      <g>
       <use xlink:href="#mef73e4fef8" x="716.503161" y="253.184969" style="fill: #898781; stroke: #898781; stroke-width: 0.8"/>
      </g>
     </g>
     <g id="text_23">
      <text style="font-size: 10.5px; font-family: 'DejaVu Sans', 'Arial', 'Helvetica', sans-serif; text-anchor: end; fill: #898781" x="720.491931" y="267.09372" transform="rotate(-30 720.491931 267.09372)">64</text>
     </g>
    </g>
    <g id="xtick_11">
     <g id="line2d_32">
      <path d="M 757.743902 253.184969 
L 757.743902 98.38 
" clip-path="url(#pc3aa6c6976)" style="fill: none; stroke: #e1e0d9; stroke-width: 0.8; stroke-linecap: square"/>
     </g>
     <g id="line2d_33">
      <g>
       <use xlink:href="#mef73e4fef8" x="757.743902" y="253.184969" style="fill: #898781; stroke: #898781; stroke-width: 0.8"/>
      </g>
     </g>
     <g id="text_24">
      <text style="font-size: 10.5px; font-family: 'DejaVu Sans', 'Arial', 'Helvetica', sans-serif; text-anchor: end; fill: #898781" x="761.732672" y="267.09372" transform="rotate(-30 761.732672 267.09372)">128</text>
     </g>
    </g>
    <g id="text_25">
     <text style="font-size: 11.5px; font-family: 'DejaVu Sans', 'Arial', 'Helvetica', sans-serif; text-anchor: middle; fill: #52514e" x="616.236682" y="292.036478" transform="rotate(-0 616.236682 292.036478)">concurrency</text>
    </g>
   </g>
   <g id="matplotlib.axis_4">
    <g id="ytick_5">
     <g id="line2d_34">
      <path d="M 454.624455 251.615005 
L 777.848909 251.615005 
" clip-path="url(#pc3aa6c6976)" style="fill: none; stroke: #e1e0d9; stroke-width: 0.8; stroke-linecap: square"/>
     </g>
     <g id="line2d_35">
      <g>
       <use xlink:href="#m2408b4e9f9" x="454.624455" y="251.615005" style="fill: #898781; stroke: #898781; stroke-width: 0.8"/>
      </g>
     </g>
     <g id="text_26">
      <text style="font-size: 10.5px; font-family: 'DejaVu Sans', 'Arial', 'Helvetica', sans-serif; text-anchor: end; fill: #898781" x="447.624455" y="255.603774" transform="rotate(-0 447.624455 255.603774)">0</text>
     </g>
    </g>
    <g id="ytick_6">
     <g id="line2d_36">
      <path d="M 454.624455 211.828793 
L 777.848909 211.828793 
" clip-path="url(#pc3aa6c6976)" style="fill: none; stroke: #e1e0d9; stroke-width: 0.8; stroke-linecap: square"/>
     </g>
     <g id="line2d_37">
      <g>
       <use xlink:href="#m2408b4e9f9" x="454.624455" y="211.828793" style="fill: #898781; stroke: #898781; stroke-width: 0.8"/>
      </g>
     </g>
     <g id="text_27">
      <text style="font-size: 10.5px; font-family: 'DejaVu Sans', 'Arial', 'Helvetica', sans-serif; text-anchor: end; fill: #898781" x="447.624455" y="215.817562" transform="rotate(-0 447.624455 215.817562)">500</text>
     </g>
    </g>
    <g id="ytick_7">
     <g id="line2d_38">
      <path d="M 454.624455 172.04258 
L 777.848909 172.04258 
" clip-path="url(#pc3aa6c6976)" style="fill: none; stroke: #e1e0d9; stroke-width: 0.8; stroke-linecap: square"/>
     </g>
     <g id="line2d_39">
      <g>
       <use xlink:href="#m2408b4e9f9" x="454.624455" y="172.04258" style="fill: #898781; stroke: #898781; stroke-width: 0.8"/>
      </g>
     </g>
     <g id="text_28">
      <text style="font-size: 10.5px; font-family: 'DejaVu Sans', 'Arial', 'Helvetica', sans-serif; text-anchor: end; fill: #898781" x="447.624455" y="176.03135" transform="rotate(-0 447.624455 176.03135)">1,000</text>
     </g>
    </g>
    <g id="ytick_8">
     <g id="line2d_40">
      <path d="M 454.624455 132.256368 
L 777.848909 132.256368 
" clip-path="url(#pc3aa6c6976)" style="fill: none; stroke: #e1e0d9; stroke-width: 0.8; stroke-linecap: square"/>
     </g>
     <g id="line2d_41">
      <g>
       <use xlink:href="#m2408b4e9f9" x="454.624455" y="132.256368" style="fill: #898781; stroke: #898781; stroke-width: 0.8"/>
      </g>
     </g>
     <g id="text_29">
      <text style="font-size: 10.5px; font-family: 'DejaVu Sans', 'Arial', 'Helvetica', sans-serif; text-anchor: end; fill: #898781" x="447.624455" y="136.245138" transform="rotate(-0 447.624455 136.245138)">1,500</text>
     </g>
    </g>
    <g id="text_30">
     <text style="font-size: 11.5px; font-family: 'DejaVu Sans', 'Arial', 'Helvetica', sans-serif; text-anchor: middle; fill: #52514e" x="410.802228" y="175.782484" transform="rotate(-90 410.802228 175.782484)">output tok/s</text>
    </g>
   </g>
   <g id="patch_6">
    <path d="M 454.624455 253.184969 
L 454.624455 98.38 
" style="fill: none; stroke: #c3c2b7; stroke-linejoin: miter; stroke-linecap: square"/>
   </g>
   <g id="patch_7">
    <path d="M 454.624455 253.184969 
L 777.848909 253.184969 
" style="fill: none; stroke: #c3c2b7; stroke-linejoin: miter; stroke-linecap: square"/>
   </g>
   <g id="line2d_42">
    <path d="M 469.058714 246.148379 
L 675.26242 167.952558 
L 757.743902 105.416589 
" clip-path="url(#pc3aa6c6976)" style="fill: none; stroke: #2a78d6; stroke-width: 2; stroke-linecap: square"/>
    <g clip-path="url(#pc3aa6c6976)">
     <use xlink:href="#mcdc94f44f1" x="469.058714" y="246.148379" style="fill: #2a78d6; stroke: #fcfcfb; stroke-width: 0.8"/>
     <use xlink:href="#mcdc94f44f1" x="675.26242" y="167.952558" style="fill: #2a78d6; stroke: #fcfcfb; stroke-width: 0.8"/>
     <use xlink:href="#mcdc94f44f1" x="757.743902" y="105.416589" style="fill: #2a78d6; stroke: #fcfcfb; stroke-width: 0.8"/>
    </g>
   </g>
   <g id="line2d_43">
    <path d="M 469.058714 243.331515 
L 675.26242 170.777379 
L 757.743902 162.684863 
" clip-path="url(#pc3aa6c6976)" style="fill: none; stroke: #eda100; stroke-width: 2; stroke-linecap: square"/>
    <g clip-path="url(#pc3aa6c6976)">
     <use xlink:href="#ma0b6d7d510" x="469.058714" y="243.331515" style="fill: #eda100; stroke: #fcfcfb; stroke-width: 0.8"/>
     <use xlink:href="#ma0b6d7d510" x="675.26242" y="170.777379" style="fill: #eda100; stroke: #fcfcfb; stroke-width: 0.8"/>
     <use xlink:href="#ma0b6d7d510" x="757.743902" y="162.684863" style="fill: #eda100; stroke: #fcfcfb; stroke-width: 0.8"/>
    </g>
   </g>
   <g id="line2d_44">
    <path d="M 469.058714 243.188285 
L 675.26242 173.22821 
L 699.386707 145.107315 
L 716.503161 137.866224 
L 718.334008 194.346731 
L 723.510994 196.805519 
L 726.727876 195.094712 
L 729.779714 191.275235 
L 740.627448 182.180107 
L 749.799077 173.419183 
L 757.743902 166.305409 
" clip-path="url(#pc3aa6c6976)" style="fill: none; stroke: #4a3aa7; stroke-width: 2; stroke-linecap: square"/>
    <g clip-path="url(#pc3aa6c6976)">
     <use xlink:href="#m387810ee27" x="469.058714" y="243.188285" style="fill: #4a3aa7; stroke: #fcfcfb; stroke-width: 0.8"/>
     <use xlink:href="#m387810ee27" x="675.26242" y="173.22821" style="fill: #4a3aa7; stroke: #fcfcfb; stroke-width: 0.8"/>
     <use xlink:href="#m387810ee27" x="699.386707" y="145.107315" style="fill: #4a3aa7; stroke: #fcfcfb; stroke-width: 0.8"/>
     <use xlink:href="#m387810ee27" x="716.503161" y="137.866224" style="fill: #4a3aa7; stroke: #fcfcfb; stroke-width: 0.8"/>
     <use xlink:href="#m387810ee27" x="718.334008" y="194.346731" style="fill: #4a3aa7; stroke: #fcfcfb; stroke-width: 0.8"/>
     <use xlink:href="#m387810ee27" x="723.510994" y="196.805519" style="fill: #4a3aa7; stroke: #fcfcfb; stroke-width: 0.8"/>
     <use xlink:href="#m387810ee27" x="726.727876" y="195.094712" style="fill: #4a3aa7; stroke: #fcfcfb; stroke-width: 0.8"/>
     <use xlink:href="#m387810ee27" x="729.779714" y="191.275235" style="fill: #4a3aa7; stroke: #fcfcfb; stroke-width: 0.8"/>
     <use xlink:href="#m387810ee27" x="740.627448" y="182.180107" style="fill: #4a3aa7; stroke: #fcfcfb; stroke-width: 0.8"/>
     <use xlink:href="#m387810ee27" x="749.799077" y="173.419183" style="fill: #4a3aa7; stroke: #fcfcfb; stroke-width: 0.8"/>
     <use xlink:href="#m387810ee27" x="757.743902" y="166.305409" style="fill: #4a3aa7; stroke: #fcfcfb; stroke-width: 0.8"/>
    </g>
   </g>
   <g id="line2d_45">
    <path d="M 699.386707 146.340687 
L 716.503161 143.356721 
L 718.334008 177.501249 
L 723.510994 172.329041 
L 729.779714 165.851846 
L 740.627448 154.098999 
L 749.799077 144.446864 
L 757.743902 134.7629 
" clip-path="url(#pc3aa6c6976)" style="fill: none; stroke-dasharray: 7.4,3.2; stroke-dashoffset: 0; stroke: #eb6834; stroke-width: 2"/>
    <defs>
     <path id="mb41afe5884" d="M -0 4.596194 
L 4.596194 0 
L 0 -4.596194 
L -4.596194 -0 
z
" style="stroke: #eb6834; stroke-width: 1.6; stroke-linejoin: miter"/>
    </defs>
    <g clip-path="url(#pc3aa6c6976)">
     <use xlink:href="#mb41afe5884" x="699.386707" y="146.340687" style="fill: #fcfcfb; stroke: #eb6834; stroke-width: 1.6; stroke-linejoin: miter"/>
     <use xlink:href="#mb41afe5884" x="716.503161" y="143.356721" style="fill: #fcfcfb; stroke: #eb6834; stroke-width: 1.6; stroke-linejoin: miter"/>
     <use xlink:href="#mb41afe5884" x="718.334008" y="177.501249" style="fill: #fcfcfb; stroke: #eb6834; stroke-width: 1.6; stroke-linejoin: miter"/>
     <use xlink:href="#mb41afe5884" x="723.510994" y="172.329041" style="fill: #fcfcfb; stroke: #eb6834; stroke-width: 1.6; stroke-linejoin: miter"/>
     <use xlink:href="#mb41afe5884" x="729.779714" y="165.851846" style="fill: #fcfcfb; stroke: #eb6834; stroke-width: 1.6; stroke-linejoin: miter"/>
     <use xlink:href="#mb41afe5884" x="740.627448" y="154.098999" style="fill: #fcfcfb; stroke: #eb6834; stroke-width: 1.6; stroke-linejoin: miter"/>
     <use xlink:href="#mb41afe5884" x="749.799077" y="144.446864" style="fill: #fcfcfb; stroke: #eb6834; stroke-width: 1.6; stroke-linejoin: miter"/>
     <use xlink:href="#mb41afe5884" x="757.743902" y="134.7629" style="fill: #fcfcfb; stroke: #eb6834; stroke-width: 1.6; stroke-linejoin: miter"/>
    </g>
   </g>
   <g id="text_31">
    <text style="font-size: 13px; font-family: 'DejaVu Sans', 'Arial', 'Helvetica', sans-serif; text-anchor: start; fill: #0b0b0b" x="454.624455" y="89.38" transform="rotate(-0 454.624455 89.38)">7.2B — the w4 M=64 cliff, and its kernel-level fix (F0055)</text>
   </g>
   <g id="legend_1">
    <g id="line2d_46">
     <path d="M 442.108557 297.2444 
L 453.108557 297.2444 
L 464.108557 297.2444 
" style="fill: none; stroke: #2a78d6; stroke-width: 2; stroke-linecap: square"/>
     <g>
      <use xlink:href="#mcdc94f44f1" x="453.108557" y="297.2444" style="fill: #2a78d6; stroke: #fcfcfb; stroke-width: 0.8"/>
     </g>
    </g>
    <g id="text_32">
     <text style="font-size: 10px; font-family: 'DejaVu Sans', 'Arial', 'Helvetica', sans-serif; text-anchor: start; fill: #0b0b0b" x="472.108557" y="300.7444" transform="rotate(-0 472.108557 300.7444)">fp16</text>
    </g>
    <g id="line2d_47">
     <path d="M 442.108557 312.245181 
L 453.108557 312.245181 
L 464.108557 312.245181 
" style="fill: none; stroke: #4a3aa7; stroke-width: 2; stroke-linecap: square"/>
     <g>
      <use xlink:href="#m387810ee27" x="453.108557" y="312.245181" style="fill: #4a3aa7; stroke: #fcfcfb; stroke-width: 0.8"/>
     </g>
    </g>
    <g id="text_33">
     <text style="font-size: 10px; font-family: 'DejaVu Sans', 'Arial', 'Helvetica', sans-serif; text-anchor: start; fill: #0b0b0b" x="472.108557" y="315.745181" transform="rotate(-0 472.108557 315.745181)">int4 GPTQ</text>
    </g>
    <g id="line2d_48">
     <path d="M 442.108557 327.245962 
L 453.108557 327.245962 
L 464.108557 327.245962 
" style="fill: none; stroke: #eda100; stroke-width: 2; stroke-linecap: square"/>
     <g>
      <use xlink:href="#ma0b6d7d510" x="453.108557" y="327.245962" style="fill: #eda100; stroke: #fcfcfb; stroke-width: 0.8"/>
     </g>
    </g>
    <g id="text_34">
     <text style="font-size: 10px; font-family: 'DejaVu Sans', 'Arial', 'Helvetica', sans-serif; text-anchor: start; fill: #0b0b0b" x="472.108557" y="330.745962" transform="rotate(-0 472.108557 330.745962)">int4 RTN</text>
    </g>
    <g id="line2d_49">
     <path d="M 542.442932 297.2444 
L 553.442932 297.2444 
L 564.442932 297.2444 
" style="fill: none; stroke: #4a3aa7; stroke-width: 2; stroke-linecap: square"/>
     <g>
      <use xlink:href="#m387810ee27" x="553.442932" y="297.2444" style="fill: #4a3aa7; stroke: #fcfcfb; stroke-width: 0.8"/>
     </g>
    </g>
    <g id="text_35">
     <text style="font-size: 10px; font-family: 'DejaVu Sans', 'Arial', 'Helvetica', sans-serif; text-anchor: start; fill: #0b0b0b" x="572.442932" y="300.7444" transform="rotate(-0 572.442932 300.7444)">int4 GPTQ (w4a16, cliff map)</text>
    </g>
    <g id="line2d_50">
     <path d="M 542.442932 312.245181 
L 553.442932 312.245181 
L 564.442932 312.245181 
" style="fill: none; stroke-dasharray: 7.4,3.2; stroke-dashoffset: 0; stroke: #eb6834; stroke-width: 2"/>
     <g>
      <use xlink:href="#mb41afe5884" x="553.442932" y="312.245181" style="fill: #fcfcfb; stroke: #eb6834; stroke-width: 1.6; stroke-linejoin: miter"/>
     </g>
    </g>
    <g id="text_36">
     <text style="font-size: 10px; font-family: 'DejaVu Sans', 'Arial', 'Helvetica', sans-serif; text-anchor: start; fill: #0b0b0b" x="572.442932" y="315.745181" transform="rotate(-0 572.442932 315.745181)">int4 GPTQ + w4a8-tc (experimental, opt-in)</text>
    </g>
   </g>
   <g id="text_37">
    <text style="font-weight: 700; font-size: 8.8px; font-family: 'DejaVu Sans', 'Arial', 'Helvetica', sans-serif; text-anchor: start; fill: #2a78d6" x="786.666949" y="110.537734" transform="rotate(-0 786.666949 110.537734)">fp16 1,837</text>
   </g>
   <g id="text_38">
    <text style="font-weight: 700; font-size: 8.8px; font-family: 'DejaVu Sans', 'Arial', 'Helvetica', sans-serif; text-anchor: start; fill: #eda100" x="786.666949" y="156.46621" transform="rotate(-0 786.666949 156.46621)">RTN 1,118</text>
   </g>
   <g id="text_39">
    <text style="font-weight: 700; font-size: 8.8px; font-family: 'DejaVu Sans', 'Arial', 'Helvetica', sans-serif; text-anchor: start; fill: #4a3aa7" x="786.666949" y="171.42621" transform="rotate(-0 786.666949 171.42621)">GPTQ 1,072</text>
   </g>
   <g id="text_40">
    <text style="font-weight: 700; font-size: 8.8px; font-family: 'DejaVu Sans', 'Arial', 'Helvetica', sans-serif; text-anchor: start; fill: #eb6834" x="786.666949" y="139.883701" transform="rotate(-0 786.666949 139.883701)">w4a8-tc 1,468</text>
   </g>
   <g id="patch_8">
    <path d="M 695.445563 126.146886 
Q 716.341893 154.581975 718.08969 188.448733 
" style="fill: none; stroke: #b3261e; stroke-width: 1.7; stroke-linecap: round"/>
    <path d="M 719.701755 184.760747 
L 718.08969 188.448733 
L 716.10654 184.946289 
z
" style="fill: #b3261e; stroke: #b3261e; stroke-width: 1.7; stroke-linecap: round"/>
   </g>
   <g id="text_41">
    <text style="font-weight: 700; font-size: 9px; font-family: 'DejaVu Sans', 'Arial', 'Helvetica', sans-serif; text-anchor: middle; fill: #b3261e" x="688.9765" y="120.383125" transform="rotate(-0 688.9765 120.383125)">cliff: c=64→66, 1,430→720 tok/s (-50%)</text>
   </g>
  </g>
  <g id="text_42">
   <text style="font-size: 14.5px; font-family: 'DejaVu Sans', 'Arial', 'Helvetica', sans-serif; text-anchor: start; fill: #0b0b0b" x="9.072" y="13.177734" transform="rotate(-0 9.072 13.177734)">Serving concurrency sweep by precision — RTX 3090 (64-in/256-out, wall-clock)</text>
  </g>
  <g id="text_43">
   <text style="font-style: italic; font-size: 6.5px; font-family: 'DejaVu Sans', 'Arial', 'Helvetica', sans-serif; text-anchor: end; fill: #898781" x="902.664" y="426.982477" transform="rotate(-0 902.664 426.982477)">rwkv-sglang · bench/plots/make_benchmark_plots.py</text>
  </g>
 </g>
 <defs>
  <clipPath id="p6fd5fb22be">
   <rect x="65.7" y="98.38" width="323.224455" height="154.804969"/>
  </clipPath>
  <clipPath id="pc3aa6c6976">
   <rect x="454.624455" y="98.38" width="323.224455" height="154.804969"/>
  </clipPath>
 </defs>
</svg>
